<svg xmlns="http://www.w3.org/2000/svg" height="895.8" width="1008"><path d="M751.8 0c-141.4 0-256 83.8-256 187 0 124 32 194 0 389 0-288-177-405.8-256-405.8 3.3-32.2-31-42.2-31-42.2s-14 7-19.4 21.6c-17.2-20-36.2-17.5-36.2-17.5l-8.5 37s-117 41-118.5 206.3C39.8 397 125 414 185.8 403c57.2 3 43 50.6 30.2 63.4-54 54-104-18.6-168-18.6s-64 64 0 64 64 64 192 64c-198 77 0 256 0 256h-64c-64 0-64 64-64 64h384c192 0 320-64 320-222.2 0-54.3-27.7-114.6-64-162.2-71-93 14.5-171.2 64-127.6s192 64 192-128A256 256 0 0 0 751.8 0zm-608 320a32 32 0 1 1 0-64 32 32 0 1 1 0 64z" fill="#eee"/></svg>