<svg xmlns="http://www.w3.org/2000/svg" width="1568" height="1264"><style>.B{fill:#eee}.C{fill:#ddd}.D{fill:#ccc}.E{fill:#e6f4d6}.F{fill:#d5e9b4}.G{fill:#d3ceb1}.H{fill:#bfb991}.I{fill:#aad785}.J{fill:#a6a17b}</style><path d="m896 1152 224 112 224-112V864l-224-112-224 112z" class="E"/><path d="m1120 1264 224-112V864l-224 112-224-112v288z" class="F"/><path d="m672 1040 224 112 224-112V752L896 640 672 752z" class="E"/><path d="m896 1152 224-112V752L896 864 672 752v288z" class="F"/><path d="m1344 864-224 112v288l224-112z" class="I"/><path d="m448 1088 224-112V688L448 576 224 688v288z" class="G"/><path d="M672 976V688L448 800 224 688v288l224 112z" class="H"/><path d="M1568 688V400l-224-112-224 112v288l224 112z" class="G"/><path d="m1568 400-224 112-224-112v288l224 112 224-112z" class="H"/><path d="m1568 400-224 112v288l224-112z" class="J"/><path d="m1344 576-224-112-224 112v288l224 112 224-112z" class="G"/><path d="M1120 688 896 576v288l224 112 224-112V576z" class="H"/><path d="M1344 864V576l-224 112v288z" class="J"/><path d="M896 576 672 464 448 576v288l224 112 224-112z" class="G"/><path d="M672 688 448 576v288l224 112 224-112V576z" class="H"/><g class="J"><path d="M448 800v288l224-112V688zM896 864V576L672 688v288z"/></g><path d="M672 688V400L448 288 224 400v288l224 112z" class="E"/><path d="M672 400 448 512 224 400v288l224 112 224-112z" class="F"/><path d="M672 400 448 512v288l224-112z" class="I"/><path d="M896 576 672 688v288l224 112 224-112V688z" class="G"/><path d="M672 688v288l224 112 224-112V688L896 800z" class="H"/><path d="m896 1088 224-112V688L896 800z" class="J"/><path d="M896 800V512L672 400 448 512v288l224 112z" class="E"/><path d="M896 512 672 624 448 512v288l224 112 224-112z" class="F"/><path d="m672 912 224-112V512L672 624z" class="I"/><path d="m1120 912 224-112V512l-224-112-224 112v288z" class="E"/><path d="M1344 800V512l-224 112-224-112v288l224 112z" class="F"/><path d="M1344 800V512l-224 112v288z" class="I"/><path d="M1120 112v288l224 112 224-112V112L1344 0z" class="B"/><path d="m1120 400 224 112 224-112V112l-224 112-224-112z" class="C"/><path d="M1344 224v288l224-112V112z" class="D"/><path d="M672 112v288l224 112 224-112V112L896 0z" class="B"/><path d="m672 400 224 112 224-112V112L896 224 672 112z" class="C"/><path d="M1120 400V112L896 224v288z" class="D"/><path d="m224 624 224-112V224L224 112 0 224v288z" class="B"/><path d="M448 512V224L224 336 0 224v288l224 112z" class="C"/><path d="M448 512V224L224 336v288z" class="D"/><path d="m672 624 224-112V224L672 112 448 224v288z" class="B"/><path d="M896 512V224L672 336 448 224v288l224 112z" class="C"/><path d="M896 512V224L672 336v288z" class="D"/><path d="m448 736 224-112V336L448 224 224 336v288z" class="B"/><path d="M672 624V336L448 448 224 336v288l224 112z" class="C"/><path d="M672 624V336L448 448v288z" class="D"/><path d="m896 512 224 112 224-112V224l-224-112-224 112z" class="B"/><path d="m1120 624 224-112V224l-224 112-224-112v288z" class="C"/><path d="m1344 224-224 112v288l224-112z" class="D"/></svg>