<svg xmlns="http://www.w3.org/2000/svg" width="1024" height="1024">
  <path fill="#999" d="M-421 299c197-114 425-90 509 54 100 174 112 298 314 545-233-403-80-711 31-775-31-42 9-84 9-84s25-1 44 15c8-42 37-54 37-54l42 45S761 8 897 238c-1 41-107 134-201 167-77 51-19 106 9 114 120 32 131-110 221-162 89-52 141 38 51 89-89 52-37 142-217 245 340-52 207 358 207 358-188 157-690 638-934 244-44-76-53-182-41-278 24-188-159-228-193-127s-217 245-372-24a414 414 0 0 1 152-565Zm1109-44a52 52 0 1 0-52-89 52 52 0 0 0 52 89z"/>
</svg>
