<svg xmlns="http://www.w3.org/2000/svg" id="svg94" width="1568" height="1536" version="1.1"><style id="style2">.B{fill:#eee}.C{fill:#ddd}.D{fill:#ccc}</style><path id="path4" d="m448 576 224 112 224-112V288L672 176 448 288z" class="B"/><path id="path6" d="m672 688 224-112V288L672 400 448 288v288z" class="C"/><path id="path8" d="M896 288 672 400v288l224-112z" class="D"/><path id="path10" d="m1120 688 224-112V288l-224-112-224 112v288z" class="B"/><path id="path12" d="M1344 576V288l-224 112-224-112v288l224 112z" class="C"/><path id="path14" d="M1120 400v288l224-112V288z" class="D"/><path id="path16" d="m1568 688-224-112-224 112v288l224 112 224-112z" class="B"/><path id="path18" d="m1344 800-224-112v288l224 112 224-112V688z" class="C"/><path id="path20" d="M1568 976V688l-224 112v288z" class="D"/><path id="path24" d="m1344 512-224 112-224-112v288l224 112 224-112z" class="C"/><path id="path30" d="m1344 1024-224-112v288l224 112 224-112V912z" class="C"/><path id="path34" d="M0 800v288l224 112 224-112V800L224 688z" class="B"/><path id="path36" d="m0 1088 224 112 224-112V800L224 912 0 800z" class="C"/><path id="path38" d="M448 1088V800L224 912v288z" class="D"/><path id="path42" d="M672 624 448 512v288l224 112 224-112V512z" class="C"/><path id="path44" d="M896 800V512L672 624v288z" class="D"/><path id="path22" d="M672 400 448 512 224 624v288l224 112 224-112 224 112 224-112 224-112V512l-224-112-224 112z" class="B"/><path id="path46" d="M1120 912 896 800 672 912v288l224 112 224-112z" class="B"/><path id="path48" d="M896 1024 672 912v288l224 112 224-112V912z" class="C"/><path id="path50" d="M896 1024v288l224-112V912z" class="D"/><path id="path28" d="m1344 800-224 112-224 112v288l224 112 224-112 224-112V912z" class="B"/><path id="path56" d="M224 1136v288l224-112v-288z" class="D"/><path id="path60" d="m448 1312 224 112 224-112v-288l-224 112-224-112z" class="C"/><path id="path52" d="M224 912 0 1024v288l224 112 224 112 224-112 224-112v-288L672 912l-224 112z" class="B"/><path id="path54" d="M224 1136 0 1024v288l224 112 224 112 224-112v-288l-224 112" class="C"/><path id="path72" d="M224 624v288l224 112 224-112V624L448 736z" class="C"/><path id="path74" d="m448 1024 224-112V624L448 736z" class="D"/><path id="path78" d="m672 912 224 112 224-112V624L896 736 672 624z" class="C"/><path id="path84" d="M896 1024v288l224 112 224-112v-288l-224 112z" class="C"/><path id="path88" d="m672 400 224 112 224-112V112L896 0 672 112z" class="B"/><path id="path90" d="m896 512 224-112V112L896 224 672 112v288z" class="C"/><path id="path92" d="m896 512 224-112V112L896 224z" class="D"/><path id="path62" d="m896 1024-224 112-224 112v288l224-112 224-112z" class="D"/><path id="path32" d="m1568 912-224 112-224 112v288l224-112 224-112z" class="D"/><path id="path26" d="m1344 512-224 112-224 112v288l224-112 224-112z" class="D"/></svg>